<?xml version="1.0" encoding="UTF-8"?>
<svg id="Layer_2" data-name="Layer 2" xmlns="http://www.w3.org/2000/svg" viewBox="0 0 16 12.44">
  <defs>
    <style>
      .cls-1 {
        fill: #231f20;
        stroke-width: 0px;
      }
    </style>
  </defs>
  <g id="Layer_1-2" data-name="Layer 1">
    <g>
      <path class="cls-1" d="M0,12.44V0h5.87c1.27,0,1.61.34,1.61,2.06v5.61c0,1.38-.34,1.63-1.33,1.63h-3.05v3.14H0ZM4.55,5.59c0-.46-.25-.7-.71-.7h-.74v2.77h.68c.51,0,.77-.2.77-.64v-1.44Z"/>
      <path class="cls-1" d="M9.79,12.44c-.98,0-1.3-.31-1.3-1.27V2.06c0-1.75.33-2.06,1.81-2.06h3.87c1.49,0,1.83.31,1.83,2.06v7.11h-3.04v-3.84c0-.29-.15-.43-.48-.43h-.6c-.33,0-.46.14-.46.43v4.99c0,.31.15.48.48.48h4.06v1.64h-6.16Z"/>
    </g>
  </g>
</svg>